<?xml version="1.0" encoding="UTF-8"?>
<svg version="1.1" xmlns="http://www.w3.org/2000/svg" width="500" height="255">
<path d="M0 0 C0.25515919 7.52719602 -0.71702277 14.58851545 -2 22 C-20.82004556 24.29612756 -20.82004556 24.29612756 -30 24 C-29.9690625 25.7634375 -29.9690625 25.7634375 -29.9375 27.5625 C-29.93052739 31.47413467 -30.35749657 35.14497944 -31 39 C-30.42926758 38.83701416 -29.85853516 38.67402832 -29.27050781 38.50610352 C-26.98346733 37.99631481 -25.01035544 37.88564032 -22.671875 37.90234375 C-21.47304688 37.90717773 -21.47304688 37.90717773 -20.25 37.91210938 C-19.0125 37.92467773 -19.0125 37.92467773 -17.75 37.9375 C-16.48929687 37.94426758 -16.48929687 37.94426758 -15.203125 37.95117188 C-13.13538599 37.96292039 -11.06768376 37.98085478 -9 38 C-9.14203337 40.37528151 -9.28851612 42.75015251 -9.4375 45.125 C-9.49647461 46.12273438 -9.49647461 46.12273438 -9.55664062 47.140625 C-9.812152 51.15018817 -10.26782413 55.04994196 -11 59 C-13.70784994 59.33772739 -16.41616996 59.67030687 -19.125 60 C-19.88554687 60.09539063 -20.64609375 60.19078125 -21.4296875 60.2890625 C-22.17734375 60.37929688 -22.925 60.46953125 -23.6953125 60.5625 C-24.37609863 60.64628906 -25.05688477 60.73007812 -25.75830078 60.81640625 C-28.49704567 61.04070773 -31.25208538 61 -34 61 C-34.66 66.61 -35.32 72.22 -36 78 C-34.329375 77.835 -32.65875 77.67 -30.9375 77.5 C-23.61194279 76.8785967 -16.34610114 76.90967908 -9 77 C-9.30528033 80.47984024 -9.62042917 83.95871583 -9.9375 87.4375 C-10.02451172 88.43072266 -10.11152344 89.42394531 -10.20117188 90.44726562 C-10.28818359 91.39150391 -10.37519531 92.33574219 -10.46484375 93.30859375 C-10.543396 94.18314209 -10.62194824 95.05769043 -10.70288086 95.95874023 C-11 98 -11 98 -12 99 C-13.33528537 99.20353681 -14.68001167 99.34570793 -16.02571106 99.46192932 C-16.89322998 99.53903137 -17.7607489 99.61613342 -18.65455627 99.6955719 C-20.09362587 99.81641396 -20.09362587 99.81641396 -21.56176758 99.93969727 C-23.06926071 100.07158951 -23.06926071 100.07158951 -24.60720825 100.20614624 C-27.95259993 100.49752528 -31.298525 100.78217769 -34.64453125 101.06640625 C-36.96850194 101.2665096 -39.29245085 101.46686597 -41.61637878 101.66746521 C-46.50303443 102.08819009 -51.38996314 102.5055532 -56.27709961 102.9206543 C-62.51709382 103.45096886 -68.75630845 103.98989027 -74.99533558 104.53144932 C-79.80367581 104.94777423 -84.61242298 105.35923712 -89.42130089 105.76930046 C-91.71974499 105.96591312 -94.01805866 106.16405715 -96.31623268 106.36380196 C-99.5487191 106.64405416 -102.78170436 106.91767674 -106.01489258 107.18969727 C-106.95200577 107.27228287 -107.88911896 107.35486847 -108.85462952 107.43995667 C-115.58010506 107.99595303 -122.25339147 108.08584581 -129 108 C-129.33 106.02 -129.66 104.04 -130 102 C-131.0725 102.7425 -132.145 103.485 -133.25 104.25 C-145.65544023 111.9733164 -160.2471945 113.3621034 -174.52514648 113.31567383 C-176.56352569 113.3124984 -178.60046909 113.33612283 -180.63867188 113.36132812 C-192.89513601 113.36732737 -199.5287814 111.54451163 -210 105 C-208.515 93.12 -208.515 93.12 -207 81 C-208.629375 81.928125 -210.25875 82.85625 -211.9375 83.8125 C-220.21517457 87.99084886 -229.71177191 90 -239 90 C-239.04898438 90.83660156 -239.09796875 91.67320313 -239.1484375 92.53515625 C-239.22320312 93.69917969 -239.29796875 94.86320312 -239.375 96.0625 C-239.44460937 97.18785156 -239.51421875 98.31320313 -239.5859375 99.47265625 C-240.09934745 106.00975333 -241.10126738 112.50663044 -242 119 C-246.6034022 119.4349307 -251.20746366 119.86177895 -255.81225586 120.28173828 C-257.37267354 120.42512541 -258.9329038 120.57056984 -260.49291992 120.71826172 C-270.04655005 121.62111201 -279.3946762 122.16717025 -289 122 C-289 118.04 -289 114.08 -289 110 C-289.61875 110.86625 -290.2375 111.7325 -290.875 112.625 C-297.98610155 121.07067803 -310.07221615 125.44256182 -320.78393555 126.8190918 C-326.11645108 127.25441118 -331.46558714 127.22761627 -336.8125 127.25 C-338.03259766 127.270625 -339.25269531 127.29125 -340.50976562 127.3125 C-350.53825159 127.3556101 -359.17560832 126.26414453 -367.171875 119.828125 C-370.37702023 116.62297977 -372.71539122 112.89421952 -375 109 C-375.4125 109.71285156 -375.825 110.42570312 -376.25 111.16015625 C-383.86017893 123.78150211 -392.70411043 129.96321854 -406.9375 133.8125 C-414.33490554 135.25248439 -421.72910259 135.31791632 -429.25 135.375 C-430.44616943 135.38893799 -431.64233887 135.40287598 -432.87475586 135.41723633 C-442.6303819 135.36507445 -451.43463335 134.19552726 -459.18359375 127.85546875 C-469.47955104 117.33809302 -471.36113006 102.55583375 -471.21484375 88.49609375 C-470.30922893 73.75927079 -465.47846872 59.6034249 -455 49 C-441.87624804 37.4893344 -427.00582951 34.63817915 -410 34.6875 C-408.33324219 34.66333008 -408.33324219 34.66333008 -406.6328125 34.63867188 C-397.20742911 34.63312753 -388.47876423 35.85079385 -381 42 C-377.67955052 45.46786901 -374.66431092 49.00353362 -372 53 C-371.53851563 52.29875 -371.07703125 51.5975 -370.6015625 50.875 C-361.20697457 37.21014483 -350.06065158 30.4860894 -333.81054688 27.39257812 C-328.55037265 26.65783524 -323.30269801 26.67212095 -318 26.6875 C-316.33324219 26.66333008 -316.33324219 26.66333008 -314.6328125 26.63867188 C-305.20742911 26.63312753 -296.47876423 27.85079385 -289 34 C-287.1047659 36.01543923 -285.29218915 38.07463908 -283.515625 40.1953125 C-281.97457228 42.08324823 -281.97457228 42.08324823 -280 44 C-279.01 37.4 -278.02 30.8 -277 24 C-260.87463153 22.02833923 -244.93668073 20.68384316 -228.6875 20.625 C-227.60508026 20.61376099 -227.60508026 20.61376099 -226.50079346 20.60229492 C-206.98982618 20.4352728 -206.98982618 20.4352728 -199.9375 27.1875 C-199.08478516 27.98220703 -199.08478516 27.98220703 -198.21484375 28.79296875 C-197.81394531 29.19128906 -197.41304688 29.58960937 -197 30 C-196.360625 29.29875 -195.72125 28.5975 -195.0625 27.875 C-182.34411902 15.33375524 -164.96374745 11.60128879 -147.6875 11.625 C-146.03971558 11.6252417 -146.03971558 11.6252417 -144.35864258 11.62548828 C-134.59383453 11.76290873 -126.71763222 13.48877773 -118 18 C-118 15.36 -118 12.72 -118 10 C-99.45972763 8.01034344 -80.90916968 6.23268659 -62.33131409 4.63565063 C-56.9081365 4.16840132 -51.4862179 3.68798333 -46.06465149 3.20240784 C-41.88761105 2.82862459 -37.71028606 2.45808003 -33.53292847 2.08786011 C-31.48669 1.90583282 -29.44056492 1.72252579 -27.39456177 1.53787231 C-24.51205454 1.27805776 -21.629141 1.02327364 -18.74609375 0.76953125 C-17.89429535 0.69156311 -17.04249695 0.61359497 -16.16488647 0.53326416 C-10.7553361 0.06338199 -5.43022763 -0.06712398 0 0 Z M-135 48 C-132.81022166 50.18977834 -130.45062096 51.50894392 -127.75390625 53 C-126.12611381 53.92809546 -124.55908318 54.96061121 -123 56 C-122.67 53.03 -122.34 50.06 -122 47 C-126.44209357 46.89165625 -130.61414671 47.29826347 -135 48 Z M-325 56 C-329.8928604 70.51231896 -331.32730677 83.81660238 -331 99 C-328.56112384 95.34168576 -327.84629822 91.72884332 -326.9375 87.5 C-326.7612207 86.68845459 -326.58494141 85.87690918 -326.40332031 85.04077148 C-324.35472217 75.32154806 -323.82730426 65.92041069 -324 56 C-324.33 56 -324.66 56 -325 56 Z M-417 64 C-421.8928604 78.51231896 -423.32730677 91.81660238 -423 107 C-420.56112384 103.34168576 -419.84629822 99.72884332 -418.9375 95.5 C-418.7612207 94.68845459 -418.58494141 93.87690918 -418.40332031 93.04077148 C-416.35472217 83.32154806 -415.82730426 73.92041069 -416 64 C-416.33 64 -416.66 64 -417 64 Z M-197 69 C-197.50660156 69.72316406 -197.50660156 69.72316406 -198.0234375 70.4609375 C-198.69246094 71.40839844 -198.69246094 71.40839844 -199.375 72.375 C-199.81585938 73.00148438 -200.25671875 73.62796875 -200.7109375 74.2734375 C-202 76 -202 76 -204 78 C-195.585 77.505 -195.585 77.505 -187 77 C-186.67 76.34 -186.34 75.68 -186 75 C-186.54269531 74.73445313 -187.08539063 74.46890625 -187.64453125 74.1953125 C-188.71767578 73.66550781 -188.71767578 73.66550781 -189.8125 73.125 C-190.52019531 72.77695313 -191.22789062 72.42890625 -191.95703125 72.0703125 C-194 71 -194 71 -197 69 Z M-165 82 C-165 84.31 -165 86.62 -165 89 C-164.34 88.01 -163.68 87.02 -163 86 C-163.66 84.68 -164.32 83.36 -165 82 Z " fill="#111111" transform="translate(472,2)"/>
<path d="M0 0 C0.66 0.33 1.32 0.66 2 1 C3.0725 0.7525 4.145 0.505 5.25 0.25 C9 0 9 0 12.4375 1.875 C14.95814153 4.34791638 15.00377683 5.03434443 15.41796875 8.80078125 C15.21316503 15.57916776 12.91271132 21.90282033 10.875 28.3125 C10.46236569 29.6423514 10.0509986 30.97259662 9.64086914 32.30322266 C8.822099 34.95510093 7.99736837 37.60499866 7.16748047 40.25341797 C5.54872409 45.44819743 3.9901926 50.66017791 2.4375 55.875 C1.95741315 57.47667702 1.47698944 59.07825314 0.99609375 60.6796875 C0.66738281 61.77539062 0.33867187 62.87109375 0 64 C0.88751953 63.18595703 0.88751953 63.18595703 1.79296875 62.35546875 C2.58316406 61.64003906 3.37335938 60.92460937 4.1875 60.1875 C4.96480469 59.47980469 5.74210937 58.77210938 6.54296875 58.04296875 C9 56 9 56 11.71875 54.40625 C14.55560492 52.65750382 15.06823352 51.13412362 16 48 C15.01 47.67 14.02 47.34 13 47 C11.05199445 44.46759279 11 42.90759058 11 39.6875 C12.97447371 32.40662821 17.85617597 28.83527645 24.171875 25.1953125 C26.68737557 23.55056213 28.25449553 21.41685234 30 19 C32 18 32 18 35.4375 18.125 C38.93864837 18.18763235 41.67422468 17.57347801 45 16.5 C54.63780869 13.6732684 64.92552372 13.50231437 74 18 C75.9375 19.25 75.9375 19.25 77 21 C77.52701804 24.99027943 77.34410901 27.31995344 75.51953125 30.92578125 C72.26694521 34.8944405 68.80408478 36.65460046 64.25 38.875 C63.06083984 39.47828125 63.06083984 39.47828125 61.84765625 40.09375 C59.90547805 41.07653897 57.9536578 42.04023362 56 43 C57.2065625 43.928125 57.2065625 43.928125 58.4375 44.875 C61 47 61 47 62 49 C62.25785684 53.55547083 61.99851462 56.8780636 60 61 C60.65226562 60.96519531 61.30453125 60.93039063 61.9765625 60.89453125 C67.40738101 60.72632006 71.40108913 60.74711183 76 64 C78.3376357 66.80516284 78.95066569 68.70947572 79.5625 72.3125 C78.64568559 78.32272783 75.25944854 82.20157161 70.54711914 85.95239258 C67.65597417 87.95707375 64.72151913 89.86656371 61.75 91.75 C59.60530325 93.14167207 57.46077372 94.53360187 55.31640625 95.92578125 C54.25437988 96.60850098 53.19235352 97.2912207 52.09814453 97.99462891 C46.8292002 101.40511817 41.64002332 104.93441555 36.44628906 108.45800781 C35.76663086 108.91401367 35.08697266 109.37001953 34.38671875 109.83984375 C33.50826294 110.43333618 33.50826294 110.43333618 32.61206055 111.03881836 C28.94797637 113.22350705 25.8343755 113.0574176 21.7421875 112.9375 C13.8165206 113.11814198 8.61740399 114.18338809 2 118.6875 C0.94776245 119.36208252 0.94776245 119.36208252 -0.12573242 120.05029297 C-3.00824252 121.91267335 -5.73923908 123.779754 -8.36328125 125.99609375 C-13.48022056 130.2721733 -18.21845163 130.57883806 -24.6875 130.6875 C-25.91883667 130.71674561 -25.91883667 130.71674561 -27.17504883 130.74658203 C-31.37018458 130.66376364 -34.17321894 130.29372628 -37.49609375 127.6171875 C-42.28131035 122.61547904 -42.37338709 117.49665874 -42.2578125 110.859375 C-41.31803697 96.79122012 -38.78880165 82.8055571 -36 69 C-36.99966797 70.4540625 -36.99966797 70.4540625 -38.01953125 71.9375 C-41.94401042 77.64583333 -45.86848958 83.35416667 -49.79296875 89.0625 C-50.2410791 89.71444336 -50.68918945 90.36638672 -51.15087891 91.03808594 C-52.05234496 92.34901269 -52.95436586 93.65955807 -53.85693359 94.96972656 C-56.24989912 98.4449593 -58.63107211 101.92755362 -60.99609375 105.421875 C-61.48851562 106.14632812 -61.9809375 106.87078125 -62.48828125 107.6171875 C-63.4280226 109.00020307 -64.36443205 110.38549081 -65.296875 111.7734375 C-68.78143309 116.88973729 -71.77396096 121.26572729 -78 123 C-84.59366079 123.82298292 -92.59038367 124.60858889 -98.69921875 121.7265625 C-100.9834717 119.7631585 -102.65039853 117.69920293 -104 115 C-104.07051689 113.35554606 -104.08425094 111.70832146 -104.0625 110.0625 C-104.05347656 109.18722656 -104.04445312 108.31195313 -104.03515625 107.41015625 C-104.01775391 106.21712891 -104.01775391 106.21712891 -104 105 C-104 104.01 -104 103.02 -104 102 C-104.46148437 102.58007812 -104.92296875 103.16015625 -105.3984375 103.7578125 C-110.88555334 110.32933859 -116.7849393 115.26164643 -125 118 C-127.92960457 118.14935239 -130.81972621 118.2311558 -133.75 118.25 C-134.53632813 118.270625 -135.32265625 118.29125 -136.1328125 118.3125 C-141.52979786 118.34836037 -145.22607387 117.56176592 -150 115 C-153.60181993 111.31632053 -155.76699786 107.6007544 -158 103 C-158.53367188 103.65226562 -159.06734375 104.30453125 -159.6171875 104.9765625 C-165.31425855 111.65928598 -172.63142049 119.40320745 -181.98950195 120.16113281 C-184.43064488 120.20671707 -186.87096732 120.23525867 -189.3125 120.25 C-190.15490234 120.270625 -190.99730469 120.29125 -191.86523438 120.3125 C-197.88501613 120.35015305 -201.93447107 119.39765771 -206.79296875 115.59765625 C-211.82038409 110.06327465 -214.02538582 103.4656734 -213.99057007 95.96969604 C-213.88400305 93.8390027 -213.7363703 91.71639034 -213.56640625 89.58984375 C-213.51391724 88.8563269 -213.46142822 88.12281006 -213.40734863 87.36706543 C-213.27832809 85.57754322 -213.14011897 83.78868742 -213 82 C-213.82089111 82.83136475 -214.64178223 83.66272949 -215.48754883 84.51928711 C-218.58168358 87.65006455 -221.6827961 90.77385504 -224.78588867 93.89575195 C-226.11913402 95.23895529 -227.45056746 96.58395996 -228.7800293 97.9309082 C-236.52457545 105.77463122 -244.26580434 113.25072209 -253 120 C-253.59804443 120.47751709 -254.19608887 120.95503418 -254.81225586 121.44702148 C-258.12233902 124.08761414 -261.53726626 126.56430837 -265 129 C-265.75152344 129.55300781 -266.50304687 130.10601562 -267.27734375 130.67578125 C-273.03614045 134.26870362 -278.69026382 134.47652004 -285.3125 134.5625 C-286.18519531 134.57740479 -287.05789063 134.59230957 -287.95703125 134.60766602 C-292.03736358 134.54115597 -294.42376785 134.34513511 -297.98046875 132.21484375 C-301.95161966 127.85963569 -302.49756595 124.38267011 -302.38671875 118.6015625 C-301.64398268 113.60497437 -298.93116243 109.55514799 -295.02514648 106.40966797 C-292.26710186 103.12794399 -291.79832818 99.76722503 -291.11328125 95.65625 C-290.9659404 94.85014282 -290.81859955 94.04403564 -290.66679382 93.21350098 C-290.20051373 90.64474105 -289.75605634 88.07277116 -289.3125 85.5 C-289.00342898 83.76926705 -288.69289761 82.0387942 -288.38085938 80.30859375 C-287.94122535 77.87053878 -287.50373622 75.43233603 -287.07795715 72.99182129 C-286.48978015 69.62649761 -285.85650013 66.30684423 -285 63 C-285.80308594 63.15855469 -286.60617187 63.31710938 -287.43359375 63.48046875 C-291.6672083 64.09719464 -295.79002721 64.2599265 -300.0625 64.3125 C-301.24682617 64.35600586 -301.24682617 64.35600586 -302.45507812 64.40039062 C-306.48568277 64.44431171 -308.48502225 64.32617513 -311.97265625 62.1171875 C-314.80627318 59.15799603 -315.96973653 57.04278402 -316.03125 52.890625 C-315.57444526 46.08423434 -313.04680849 41.80938233 -308.1875 37.0625 C-299.01476373 29.62304086 -281.95951007 22 -270 22 C-269.731875 21.401875 -269.46375 20.80375 -269.1875 20.1875 C-267.9271059 17.8657214 -267.14126209 16.5505691 -265 15 C-259.11432122 13.70515067 -251.76684492 12.43603134 -246.35107422 15.49731445 C-242.47964784 17.23333582 -239.22942426 17.40731921 -235.07421875 17.37109375 C-233.53971137 17.38848114 -232.00520621 17.40606547 -230.47070312 17.42382812 C-228.08141855 17.43386611 -225.69228324 17.43750343 -223.30297852 17.43579102 C-203.58745746 17.46633877 -203.58745746 17.46633877 -195.6875 25.0625 C-194.06246462 26.46082849 -194.06246462 26.46082849 -192 27 C-188.78264819 26.1200791 -185.98507037 24.80729773 -182.984375 23.35546875 C-178.93363189 21.51566789 -175.39868244 21.11677918 -171 21 C-169.79923828 20.92458984 -169.79923828 20.92458984 -168.57421875 20.84765625 C-160.93681428 20.55071206 -153.4992272 21.70337138 -147.375 26.5625 C-145 29 -145 29 -145 31 C-144.11699219 30.38511719 -143.23398438 29.77023438 -142.32421875 29.13671875 C-130.53649734 21.11360175 -120.55261064 17.7045653 -106 19 C-101.8731954 19.89477367 -97.99473085 21.25397066 -94.046875 22.73046875 C-91.13845557 23.11344764 -89.51117491 22.12924846 -86.875 20.875 C-70.38068095 13.68002972 -53.32060251 11.00434975 -35.4375 10.625 C-34.71175781 10.59881592 -33.98601562 10.57263184 -33.23828125 10.5456543 C-27.7063959 10.52843095 -23.68899706 12.09936117 -19 15 C-18.67 15.33 -18.34 15.66 -18 16 C-17.69707031 15.33613281 -17.39414062 14.67226562 -17.08203125 13.98828125 C-14.61695738 8.79266402 -12.48294936 4.6571429 -8 1 C-5.04152015 0.01384005 -3.0789413 -0.15789443 0 0 Z M-58 32 C-57.34 33.32 -56.68 34.64 -56 36 C-53.37812506 34.95125002 -52.20628639 34.35068687 -50.75 31.875 C-50.5025 31.25625 -50.255 30.6375 -50 30 C-52.88395737 30 -55.29477815 31.05905327 -58 32 Z M-242.72265625 47.0078125 C-243.52582275 47.19230957 -244.32898926 47.37680664 -245.15649414 47.56689453 C-246.06902954 47.78128174 -246.06902954 47.78128174 -247 48 C-247.86585625 50.9550405 -248.71566785 53.91445682 -249.5625 56.875 C-249.80935547 57.71675781 -250.05621094 58.55851562 -250.31054688 59.42578125 C-250.53935547 60.23144531 -250.76816406 61.03710938 -251.00390625 61.8671875 C-251.32597046 62.98262939 -251.32597046 62.98262939 -251.65454102 64.12060547 C-252.20980332 66.08167993 -252.20980332 66.08167993 -251 68 C-244.12887026 61.38707556 -237.73731032 54.63588886 -232 47 C-232 46.67 -232 46.34 -232 46 C-235.76637131 45.80685275 -239.07075775 46.16070545 -242.72265625 47.0078125 Z M-35 66 C-34 68 -34 68 -34 68 Z M-3 70 C-3.83714909 73.29070841 -4.66906896 76.58271647 -5.5 79.875 C-5.73847656 80.81214844 -5.97695313 81.74929687 -6.22265625 82.71484375 C-6.44824219 83.61074219 -6.67382812 84.50664062 -6.90625 85.4296875 C-7.11572266 86.25710449 -7.32519531 87.08452148 -7.54101562 87.93701172 C-8.07239169 89.97313919 -8.07239169 89.97313919 -8 92 C-6.03856959 91.79905835 -4.08068209 91.56328747 -2.125 91.3125 C-1.03445313 91.18488281 0.05609375 91.05726563 1.1796875 90.92578125 C4.19340685 90.28548654 4.19340685 90.28548654 5.375 87.59375 C6.01059468 84.95603209 6.15442002 82.70235031 6 80 C4.576875 79.4740625 4.576875 79.4740625 3.125 78.9375 C0 77 0 77 -1.375 73.3125 C-1.58125 72.219375 -1.7875 71.12625 -2 70 C-2.33 70 -2.66 70 -3 70 Z M-102 98 C-101 100 -101 100 -101 100 Z " fill="#11100C" transform="translate(359,115)"/>
<path d="M0 0 C6.48688794 6.18517222 9.92237613 14.11877193 10.3828125 23.0625 C10.50272562 28.38836255 10.32133097 33.68404376 10 39 C9.93941406 40.06734375 9.87882812 41.1346875 9.81640625 42.234375 C8.53751831 52.65494342 2.08919876 66.15060306 -6 73 C-19.15721308 82.93672369 -36.02076843 84.24370374 -52 83 C-59.166082 81.47160192 -64.7125961 77.96806623 -69 72 C-76.14058025 58.88282124 -76.8183151 42.52777709 -73.4375 28.25 C-69.66741869 15.59046383 -62.07404571 5.02642517 -50.375 -1.3125 C-34.69376131 -8.54241784 -14.38901127 -11.07085565 0 0 Z M-33 17 C-37.8928604 31.51231896 -39.32730677 44.81660238 -39 60 C-36.56112384 56.34168576 -35.84629822 52.72884332 -34.9375 48.5 C-34.7612207 47.68845459 -34.58494141 46.87690918 -34.40332031 46.04077148 C-32.35472217 36.32154806 -31.82730426 26.92041069 -32 17 C-32.33 17 -32.66 17 -33 17 Z " fill="#FBFBFB" transform="translate(88,49)"/>
<path d="M0 0 C6.48688794 6.18517222 9.92237613 14.11877193 10.3828125 23.0625 C10.50272562 28.38836255 10.32133097 33.68404376 10 39 C9.93941406 40.06734375 9.87882812 41.1346875 9.81640625 42.234375 C8.53751831 52.65494342 2.08919876 66.15060306 -6 73 C-19.15721308 82.93672369 -36.02076843 84.24370374 -52 83 C-59.166082 81.47160192 -64.7125961 77.96806623 -69 72 C-76.14058025 58.88282124 -76.8183151 42.52777709 -73.4375 28.25 C-69.66741869 15.59046383 -62.07404571 5.02642517 -50.375 -1.3125 C-34.69376131 -8.54241784 -14.38901127 -11.07085565 0 0 Z M-33 17 C-37.8928604 31.51231896 -39.32730677 44.81660238 -39 60 C-36.56112384 56.34168576 -35.84629822 52.72884332 -34.9375 48.5 C-34.7612207 47.68845459 -34.58494141 46.87690918 -34.40332031 46.04077148 C-32.35472217 36.32154806 -31.82730426 26.92041069 -32 17 C-32.33 17 -32.66 17 -33 17 Z " fill="#FBFBFB" transform="translate(180,41)"/>
<path d="M0 0 C0.78375 0.04125 1.5675 0.0825 2.375 0.125 C3.035 1.775 3.695 3.425 4.375 5.125 C4.96345703 4.98425049 5.55191406 4.84350098 6.15820312 4.69848633 C12.79040348 3.2277609 19.09387573 2.78992635 25.875 2.8125 C26.84308594 2.79638672 27.81117188 2.78027344 28.80859375 2.76367188 C36.60521193 2.75843925 44.55634777 3.59757344 50.875 8.5625 C54.28300355 12.05570364 55.67401153 14.73717175 55.8125 19.625 C55.25912076 40.59192443 34.14059416 57.41858842 20.39727783 71.27694702 C19.39906986 72.28385995 18.40223405 73.29213543 17.40692139 74.3019104 C10.74732069 81.04663085 3.79375658 87.213155 -3.625 93.125 C-4.74656166 94.07012781 -5.86356392 95.02073893 -6.97265625 95.98046875 C-21.40286101 108.37591082 -21.40286101 108.37591082 -29.5 109.8125 C-32.625 109.125 -32.625 109.125 -35.0625 107.0625 C-37.08346808 103.26308001 -37.34725758 101.38631973 -36.625 97.125 C-35.30894489 94.95907858 -33.86013272 93.05668882 -32.23046875 91.1171875 C-28.52253576 86.51610277 -26.99717233 82.27549268 -26.01171875 76.5 C-25.73328728 74.98207195 -25.45471756 73.46416926 -25.17602539 71.94628906 C-25.03504425 71.15774536 -24.89406311 70.36920166 -24.74880981 69.5567627 C-22.16363497 55.14835028 -19.09743133 41.08291757 -14.625 27.125 C-18.255 28.445 -21.885 29.765 -25.625 31.125 C-24.71447925 34.98438975 -24.71447925 34.98438975 -23.625 38.125 C-26.11861571 36.92118552 -28.30643083 35.67071278 -30.625 34.125 C-33.64796776 34.50211067 -35.93779533 35.76353359 -38.5625 37.25 C-41.22764046 38.61229299 -42.38791974 39.13026845 -45.4375 39.0625 C-47.91344708 38.00137982 -49.14137764 37.38947624 -50.625 35.125 C-51.25 32.4375 -51.25 32.4375 -50.625 29.125 C-43.57461367 17.80370656 -29.88965536 12.73115152 -17.625 9.125 C-14.6280639 8.55726813 -11.70167053 8.10139006 -8.6640625 7.83984375 C-7.99117187 7.60394531 -7.31828125 7.36804688 -6.625 7.125 C-5.40607117 4.71309461 -5.40607117 4.71309461 -4.625 2.125 C-2.625 0.125 -2.625 0.125 0 0 Z M7.65234375 27.1328125 C6.84917725 27.31730957 6.04601074 27.50180664 5.21850586 27.69189453 C4.30597046 27.90628174 4.30597046 27.90628174 3.375 28.125 C2.50914375 31.0800405 1.65933215 34.03945682 0.8125 37 C0.56564453 37.84175781 0.31878906 38.68351562 0.06445312 39.55078125 C-0.16435547 40.35644531 -0.39316406 41.16210938 -0.62890625 41.9921875 C-0.95097046 43.10762939 -0.95097046 43.10762939 -1.27954102 44.24560547 C-1.83480332 46.20667993 -1.83480332 46.20667993 -0.625 48.125 C6.24612974 41.51207556 12.63768968 34.76088886 18.375 27.125 C18.375 26.795 18.375 26.465 18.375 26.125 C14.60862869 25.93185275 11.30424225 26.28570545 7.65234375 27.1328125 Z " fill="#FBCE00" transform="translate(108.625,134.875)"/>
<path d="M0 0 C1.46191772 -0.04471436 1.46191772 -0.04471436 2.95336914 -0.09033203 C10.9401619 -0.15417747 16.92611585 1.58866927 23.1875 6.625 C29.26834245 14.31547722 29.04844331 21.73501557 28.3125 31.3125 C26.99560553 38.87366907 23.20424758 45.25973424 17.15625 50.00390625 C6.22505093 57.08434201 -4.83827648 59.00601131 -17.6875 58.3125 C-17.73648438 59.38886719 -17.78546875 60.46523437 -17.8359375 61.57421875 C-17.91111091 63.04949691 -17.986652 64.52475637 -18.0625 66 C-18.0934375 66.70189453 -18.124375 67.40378906 -18.15625 68.12695312 C-18.52414167 75.02492191 -19.61901307 81.36733496 -20.6875 88.3125 C-35.0425 89.3025 -35.0425 89.3025 -49.6875 90.3125 C-48.56239065 75.68607841 -48.56239065 75.68607841 -47.96313477 70.65869141 C-47.82952042 69.52686432 -47.69590607 68.39503723 -47.5582428 67.22891235 C-47.41656174 66.0525119 -47.27488068 64.87611145 -47.12890625 63.6640625 C-46.97969223 62.40846527 -46.83047821 61.15286804 -46.67674255 59.85922241 C-46.36282495 57.22206875 -46.04793077 54.58505701 -45.73120117 51.94824219 C-45.25163684 47.95548001 -44.77709608 43.9621337 -44.30273438 39.96875 C-42.84582568 27.73896527 -41.38818884 15.51118605 -39.6875 3.3125 C-34.35692268 2.62035366 -29.02474445 1.9507183 -23.6875 1.3125 C-22.72199219 1.19519531 -21.75648438 1.07789062 -20.76171875 0.95703125 C-13.86210868 0.25173778 -6.93046505 0.11491494 0 0 Z " fill="#FBFBFB" transform="translate(245.6875,27.6875)"/>
<path d="M0 0 C1.02480469 -0.02449219 2.04960937 -0.04898437 3.10546875 -0.07421875 C10.24795318 -0.1014455 15.71191098 1.23690681 22.125 4.375 C22.39032622 11.27348166 21.36010365 17.58192992 20.125 24.375 C8.74 25.365 8.74 25.365 -2.875 26.375 C-3.33072917 23.0546875 -3.78645833 19.734375 -4.2421875 16.4140625 C-4.6052585 13.27933341 -4.6052585 13.27933341 -6.875 11.375 C-10.65306504 10.871258 -12.37999562 11.05999721 -15.625 13.125 C-18.29276185 15.79276185 -19.67038039 17.82534751 -20.16796875 21.59375 C-19.96044738 26.15598308 -19.96044738 26.15598308 -17.39453125 29.7421875 C-11.6929337 32.58747216 -5.27851602 33.23671662 0.94628906 34.23852539 C7.74611827 35.37359239 13.1790405 36.97449289 18 42.25 C22.70047597 49.16246466 22.90540349 56.24904861 22.125 64.375 C21.24052311 67.71691554 19.95279958 70.44937111 18.125 73.375 C17.54105469 74.31279297 17.54105469 74.31279297 16.9453125 75.26953125 C9.65678748 85.16726198 -3.85567815 88.22593821 -15.3984375 90.06591797 C-28.14061767 91.65617823 -40.31908606 91.30772367 -51.875 85.375 C-51.32618943 79.02280958 -50.70988387 72.69626362 -49.875 66.375 C-44.3407926 64.54759729 -39.24515175 63.97463117 -33.4375 63.75 C-32.19709961 63.69199219 -32.19709961 63.69199219 -30.93164062 63.6328125 C-28.91308927 63.53946908 -26.89407669 63.45619039 -24.875 63.375 C-24.82601563 64.05046875 -24.77703125 64.7259375 -24.7265625 65.421875 C-24.65179688 66.31390625 -24.57703125 67.2059375 -24.5 68.125 C-24.43039062 69.00671875 -24.36078125 69.8884375 -24.2890625 70.796875 C-23.87116748 73.39886288 -23.26854867 75.14933233 -21.875 77.375 C-18.54647092 79.03926454 -15.21749624 78.75857035 -11.6875 77.75 C-7.95901593 74.92149485 -7.00501817 71.30137947 -6.375 66.8125 C-7.02747374 62.32674302 -8.39700519 61.22188846 -11.875 58.375 C-14.51584428 57.48715439 -16.85993286 56.84177003 -19.5625 56.3125 C-20.99070915 55.99195471 -22.4178093 55.66642769 -23.84375 55.3359375 C-24.53339844 55.17706055 -25.22304688 55.01818359 -25.93359375 54.85449219 C-33.66549033 52.94485375 -39.4357063 50.34665227 -44.05859375 43.6640625 C-47.34014572 38.10018547 -47.86493201 32.71233258 -46.875 26.375 C-44.06482537 17.22842199 -37.93603401 11.16259523 -29.68359375 6.6171875 C-19.59980143 1.77977149 -11.09177365 0.01384741 0 0 Z " fill="#FAFAFA" transform="translate(326.875,19.625)"/>
<path d="M0 0 C0.80679199 -0.01853027 1.61358398 -0.03706055 2.44482422 -0.05615234 C6.09347921 -0.01653527 8.2338474 0.15136619 11.16796875 2.40625 C13.59204913 5.74637104 14.27504238 8.38594585 14.21484375 12.56640625 C11.33846246 28.56760886 -2.17086047 44.76522981 -11.546875 57.67578125 C-14.85186089 62.22804642 -18.08393795 66.83084556 -21.3125 71.4375 C-21.90893311 72.28666992 -22.50536621 73.13583984 -23.11987305 74.01074219 C-25.88564199 77.9641136 -28.61795199 81.93134266 -31.25390625 85.97265625 C-31.70056641 86.65658447 -32.14722656 87.3405127 -32.60742188 88.04516602 C-33.42258926 89.30230108 -34.23051524 90.56417742 -35.02929688 91.83178711 C-37.70039768 95.96001374 -40.48046424 99.7945845 -45.4453125 101.03125 C-48.57248258 100.98219635 -50.77059504 100.90642872 -53.3125 99 C-54.71390248 95.4964938 -54.79702418 92.19727902 -54.3125 88.5 C-52.6328125 85.11328125 -52.6328125 85.11328125 -50.4375 81.8125 C-46.34994407 75.12756886 -44.63396013 69.38016475 -44.3125 61.5 C-44.26625488 60.5605957 -44.22000977 59.62119141 -44.17236328 58.65332031 C-44.03067937 55.3729092 -43.94388319 52.09521472 -43.875 48.8125 C-43.84019531 47.75506592 -43.80539062 46.69763184 -43.76953125 45.6081543 C-43.72769768 37.25516771 -45.76782145 30.98916084 -50.97094727 24.3996582 C-52.3125 22.5 -52.3125 22.5 -52.4375 19.625 C-50.79713685 15.06843568 -48.39000832 12.87751996 -44.3125 10.5 C-38.75645226 8.10863898 -33.10369385 6.23338478 -27.3125 4.5 C-26.60738281 4.28537109 -25.90226562 4.07074219 -25.17578125 3.84960938 C-16.80884566 1.37720346 -8.73320477 0.12521322 0 0 Z M-23.3125 15.5 C-22.6525 16.82 -21.9925 18.14 -21.3125 19.5 C-18.69062506 18.45125002 -17.51878639 17.85068687 -16.0625 15.375 C-15.815 14.75625 -15.5675 14.1375 -15.3125 13.5 C-18.19645737 13.5 -20.60727815 14.55905327 -23.3125 15.5 Z " fill="#F8CC00" transform="translate(324.3125,131.5)"/>
<path d="M0 0 C4.99390451 2.76926313 7.26897455 6.00694479 9.67578125 11.109375 C10.17078125 12.099375 10.17078125 12.099375 10.67578125 13.109375 C12.09369091 35.86566286 5.82179123 56.70786717 -8.86328125 74.35546875 C-18.85489019 85.53655495 -18.85489019 85.53655495 -25.9453125 86.4453125 C-33.5103209 86.55023633 -33.5103209 86.55023633 -37.32421875 84.484375 C-42.34210668 78.52563309 -42.87331948 73.24226415 -42.82421875 65.734375 C-42.82067383 64.76137451 -42.81712891 63.78837402 -42.81347656 62.78588867 C-42.58561439 52.74426704 -39.9795198 44.40405034 -36.1015625 35.2109375 C-33.7913409 29.56372915 -33.24307786 25.50655399 -33.57421875 19.359375 C-33.7334716 12.81010154 -33.7334716 12.81010154 -31.98046875 9.80859375 C-29.87866691 7.86614984 -27.81739864 6.51539016 -25.32421875 5.109375 C-24.39480469 4.53445312 -23.46539062 3.95953125 -22.5078125 3.3671875 C-15.20096581 -0.76732549 -8.15211032 -3.12383387 0 0 Z " fill="#FACE00" transform="translate(203.32421875,142.890625)"/>
<path d="M0 0 C4.99390451 2.76926313 7.26897455 6.00694479 9.67578125 11.109375 C10.17078125 12.099375 10.17078125 12.099375 10.67578125 13.109375 C12.09369091 35.86566286 5.82179123 56.70786717 -8.86328125 74.35546875 C-18.85489019 85.53655495 -18.85489019 85.53655495 -25.9453125 86.4453125 C-33.5103209 86.55023633 -33.5103209 86.55023633 -37.32421875 84.484375 C-42.34210668 78.52563309 -42.87331948 73.24226415 -42.82421875 65.734375 C-42.82067383 64.76137451 -42.81712891 63.78837402 -42.81347656 62.78588867 C-42.58561439 52.74426704 -39.9795198 44.40405034 -36.1015625 35.2109375 C-33.7913409 29.56372915 -33.24307786 25.50655399 -33.57421875 19.359375 C-33.7334716 12.81010154 -33.7334716 12.81010154 -31.98046875 9.80859375 C-29.87866691 7.86614984 -27.81739864 6.51539016 -25.32421875 5.109375 C-24.39480469 4.53445312 -23.46539062 3.95953125 -22.5078125 3.3671875 C-15.20096581 -0.76732549 -8.15211032 -3.12383387 0 0 Z " fill="#FACE00" transform="translate(258.32421875,140.890625)"/>
<path d="M0 0 C-0.33 3.3 -0.66 6.6 -1 10 C-4.54137572 10.33670126 -8.08304682 10.66947726 -11.625 11 C-12.62402344 11.09539063 -13.62304688 11.19078125 -14.65234375 11.2890625 C-19.45138006 11.73400626 -24.17381074 12.13177309 -29 12 C-28.97679687 12.53625 -28.95359375 13.0725 -28.9296875 13.625 C-28.74002024 21.86197799 -29.86918898 29.86219924 -31 38 C-29.87464844 37.89171875 -29.87464844 37.89171875 -28.7265625 37.78125 C-22.11757067 37.18194595 -15.63524525 36.90242286 -9 37 C-9.495 41.95 -9.495 41.95 -10 47 C-17.59 47.66 -25.18 48.32 -33 49 C-33.20496094 50.84207031 -33.40992188 52.68414062 -33.62109375 54.58203125 C-33.89305907 56.9922067 -34.16520379 59.40236191 -34.4375 61.8125 C-34.57220703 63.02744141 -34.70691406 64.24238281 -34.84570312 65.49414062 C-34.97783203 66.65751953 -35.10996094 67.82089844 -35.24609375 69.01953125 C-35.36654053 70.09307861 -35.4869873 71.16662598 -35.61108398 72.27270508 C-36 75 -36 75 -37 78 C-35.33324219 77.7834375 -35.33324219 77.7834375 -33.6328125 77.5625 C-25.70515525 76.56274374 -18.00773942 75.74578605 -10 76 C-9.97311849 77.64574566 -9.95365877 79.29161413 -9.9375 80.9375 C-9.92589844 81.85402344 -9.91429687 82.77054687 -9.90234375 83.71484375 C-10 86 -10 86 -11 87 C-12.52997812 87.21046862 -14.06860253 87.3586045 -15.6081543 87.48071289 C-16.58975021 87.56072037 -17.57134613 87.64072784 -18.58268738 87.72315979 C-19.65239273 87.80549362 -20.72209808 87.88782745 -21.82421875 87.97265625 C-22.91837601 88.06002548 -24.01253326 88.14739471 -25.1398468 88.2374115 C-27.46244499 88.42191402 -29.78522143 88.60418385 -32.1081543 88.78442383 C-35.6552234 89.05999246 -39.20165015 89.34287611 -42.74804688 89.62695312 C-45.00256972 89.80512396 -47.25712603 89.98287191 -49.51171875 90.16015625 C-50.57130295 90.24451431 -51.63088715 90.32887238 -52.72257996 90.41578674 C-57.49357395 90.78343479 -62.21027333 91.11017345 -67 91 C-66.42119489 82.22984438 -65.47840619 73.57595728 -64.25 64.875 C-62.94689267 55.4343707 -61.74486808 45.98794134 -60.66015625 36.51953125 C-60.54793732 35.54064941 -60.43571838 34.56176758 -60.32009888 33.55322266 C-59.76063579 28.65523597 -59.2086215 23.75648989 -58.66308594 18.85693359 C-58.45905357 17.05435415 -58.25495517 15.25178217 -58.05078125 13.44921875 C-57.95926285 12.60897659 -57.86774445 11.76873444 -57.77345276 10.9030304 C-57.11306785 5.11306785 -57.11306785 5.11306785 -56 4 C-53.95037921 3.71095334 -51.89203723 3.48341013 -49.83203125 3.28125 C-48.54490234 3.15363281 -47.25777344 3.02601562 -45.93164062 2.89453125 C-45.25335205 2.82959473 -44.57506348 2.7646582 -43.8762207 2.69775391 C-41.86558623 2.50508693 -39.85563095 2.30537295 -37.84570312 2.10546875 C-25.22337788 0.87006569 -12.69062514 -0.20918613 0 0 Z " fill="#FBFBFB" transform="translate(466,9)"/>
<path d="M0 0 C1.16352493 0.00394775 2.32704987 0.00789551 3.52583313 0.01196289 C4.40893661 0.01703857 5.2920401 0.02211426 6.2019043 0.02734375 C4.21804389 18.09884202 2.16870971 36.16178766 0.03979492 54.21679688 C-0.2742504 56.88684462 -0.586792 59.55701635 -0.89672852 62.22753906 C-1.3511835 66.14315384 -1.81260539 70.05793036 -2.2746582 73.97265625 C-2.41320221 75.17334747 -2.55174622 76.3740387 -2.69448853 77.6111145 C-2.89006851 79.25211624 -2.89006851 79.25211624 -3.08959961 80.92626953 C-3.20268463 81.89074005 -3.31576965 82.85521057 -3.43228149 83.84890747 C-3.7980957 86.02734375 -3.7980957 86.02734375 -4.7980957 87.02734375 C-6.94038954 87.25666661 -9.08949714 87.4228893 -11.23950195 87.5625 C-12.54467773 87.64951172 -13.84985352 87.73652344 -15.19458008 87.82617188 C-16.58324567 87.91416166 -17.97191764 88.00205097 -19.3605957 88.08984375 C-20.75320163 88.18121785 -22.14578025 88.27300928 -23.53833008 88.36523438 C-26.95800449 88.59005726 -30.37790349 88.81056434 -33.7980957 89.02734375 C-31.6489578 68.68191434 -29.26167366 48.37626613 -26.6105957 28.08984375 C-26.41237213 26.56722931 -26.41237213 26.56722931 -26.21014404 25.01385498 C-25.83170063 22.11308237 -25.4503712 19.21270798 -25.06762695 16.3125 C-24.9542247 15.44626511 -24.84082245 14.58003021 -24.72398376 13.68754578 C-24.20220054 9.76891778 -23.64500892 5.89227622 -22.7980957 2.02734375 C-20.40341714 1.68305107 -18.00796178 1.35196423 -15.6105957 1.02734375 C-14.62929688 0.88425781 -14.62929688 0.88425781 -13.62817383 0.73828125 C-9.06573671 0.13283936 -4.6039715 -0.02029858 0 0 Z " fill="#FBFBFB" transform="translate(388.798095703125,14.97265625)"/>
<path d="M0 0 C0.99 0.66 1.98 1.32 3 2 C2.44480375 6.51762427 2.44480375 6.51762427 0.56640625 8.5546875 C-6.53849857 13.23589184 -18.24260338 20 -27 20 C-27.66 23.3 -28.32 26.6 -29 30 C-27.824375 29.484375 -26.64875 28.96875 -25.4375 28.4375 C-21.31251475 26.87411591 -18.33438532 26.93851788 -14 28 C-13 29 -13 29 -12.5625 31.75 C-13.07835983 35.58210156 -14.24102958 36.43266189 -17.19311523 38.75537109 C-20.80960721 41.2465042 -24.80406053 43.04296544 -28.78515625 44.87304688 C-32.03037677 46.48265024 -33.76735058 47.51177338 -35.34765625 50.828125 C-35.56292969 51.87484375 -35.77820313 52.9215625 -36 54 C-36.29261719 55.12019531 -36.58523438 56.24039063 -36.88671875 57.39453125 C-37.15097656 58.52246094 -37.41523438 59.65039062 -37.6875 60.8125 C-37.95949219 61.95332031 -38.23148437 63.09414062 -38.51171875 64.26953125 C-38.67285156 65.17058594 -38.83398438 66.07164062 -39 67 C-38.505 67.495 -38.505 67.495 -38 68 C-37.29991821 67.47998413 -37.29991821 67.47998413 -36.58569336 66.94946289 C-28.49124834 60.96006865 -20.37032335 55.0035402 -11.8125 49.6875 C-11.22654053 49.30924072 -10.64058105 48.93098145 -10.03686523 48.54125977 C-5.91253769 46.05059827 -2.7749527 45.4694497 2 46 C4 48 4 48 4.5625 51.25 C3.77236421 56.51757193 1.11980326 57.90443144 -3 61 C-6.26344926 63.30619404 -9.59056269 65.50472812 -12.9375 67.6875 C-20.88315364 72.8972789 -20.88315364 72.8972789 -28.68359375 78.3203125 C-29.39588135 78.82731689 -30.10816895 79.33432129 -30.84204102 79.85668945 C-32.15617631 80.79774731 -33.46324291 81.74879094 -34.76147461 82.71166992 C-38.80499772 85.59030605 -42.02042992 86.87401088 -47 87 C-47.99 86.34 -48.98 85.68 -50 85 C-51.64587853 74.07195964 -48.87068601 63.4703146 -46 53 C-47.27875 53.20625 -48.5575 53.4125 -49.875 53.625 C-52.0546875 53.9765625 -52.0546875 53.9765625 -54 54 C-54.66 53.34 -55.32 52.68 -56 52 C-55.9921875 49.16796875 -55.9921875 49.16796875 -55 46 C-52.3828125 43.55078125 -52.3828125 43.55078125 -49.125 41.3125 C-41.84068948 36.45300154 -41.84068948 36.45300154 -38.3125 28.8125 C-38.06113281 27.91144531 -37.80976563 27.01039063 -37.55078125 26.08203125 C-37.36902344 25.39496094 -37.18726563 24.70789063 -37 24 C-37.804375 23.7525 -38.60875 23.505 -39.4375 23.25 C-42 22 -42 22 -43.0625 20.1875 C-42.96111476 16.63901671 -41.51121978 15.51121978 -39 13 C-36.4560889 11.14429673 -33.87529511 9.37519353 -31.2421875 7.6484375 C-28.77312314 6.02997409 -28.77312314 6.02997409 -27 3 C-24.66666667 3 -22.33333333 3 -20 3 C-18.38254028 2.54483546 -16.77826971 2.04111222 -15.1875 1.5 C-10.13912154 -0.12875819 -5.28176202 -0.7462306 0 0 Z " fill="#F9CD00" transform="translate(428,136)"/>
<path d="M0 0 C1.32 0 2.64 0 4 0 C4.48937429 1.32962072 4.96583581 2.66399425 5.4375 4 C5.70433594 4.7425 5.97117187 5.485 6.24609375 6.25 C7.22563333 9.82303556 7.59815812 13.31709963 8 17 C9.26714844 17.06058594 10.53429687 17.12117188 11.83984375 17.18359375 C13.53906964 17.26808565 15.238288 17.35272919 16.9375 17.4375 C18.18370117 17.49647461 18.18370117 17.49647461 19.45507812 17.55664062 C25.00365014 17.83730769 30.48371637 18.33760065 36 19 C36.495 21.475 36.495 21.475 37 24 C29.41320849 28.79980687 21.70567174 33.39465712 14 38 C14.93821661 43.18778597 16.01382034 48.22556295 17.625 53.25 C18.78673829 56.95121646 19.30900268 60.08596611 19 64 C15.16340797 64.61069349 14.0064871 64.00462579 10.7734375 61.69921875 C9.62973084 60.70774157 8.49714159 59.70331995 7.375 58.6875 C6.80265625 58.18798828 6.2303125 57.68847656 5.640625 57.17382812 C3.00621279 54.86105926 0.46386192 52.49451152 -2 50 C-5.36330307 51.50768758 -7.97301294 53.47383585 -10.8125 55.8125 C-11.68777344 56.51890625 -12.56304687 57.2253125 -13.46484375 57.953125 C-14.99926291 59.19200888 -16.53324511 60.43143461 -18.06640625 61.671875 C-19.875 63.0625 -19.875 63.0625 -23 65 C-25.1953125 64.62109375 -25.1953125 64.62109375 -27 64 C-26.47218708 56.74745951 -23.37652026 51.22316098 -20.0625 44.8515625 C-19.65773438 44.04203125 -19.25296875 43.2325 -18.8359375 42.3984375 C-18.46001465 41.67317871 -18.0840918 40.94791992 -17.69677734 40.20068359 C-16.8101823 37.40048468 -17.12657015 35.78251818 -18 33 C-20.2112254 30.12601933 -20.2112254 30.12601933 -22.9375 27.375 C-25.54745171 24.63361188 -27.89919116 22.15121327 -30 19 C-29.67 17.68 -29.34 16.36 -29 15 C-21.74 15 -14.48 15 -7 15 C-5.06777628 10.43874491 -5.06777628 10.43874491 -3.14086914 5.87524414 C-1.11111111 1.11111111 -1.11111111 1.11111111 0 0 Z " fill="#191816" transform="translate(459,104)"/>
<path d="M0 0 C1.67542976 0.28604898 3.34385343 0.61781233 5 1 C6.18917049 5.20909475 5.73959859 7.7731069 4.36328125 11.890625 C3.98768066 13.03724609 3.61208008 14.18386719 3.22509766 15.36523438 C2.82081543 16.56470703 2.4165332 17.76417969 2 19 C1.22131802 21.39018944 0.44399525 23.78082208 -0.33203125 26.171875 C-0.73486328 27.40147949 -1.13769531 28.63108398 -1.55273438 29.89794922 C-5.24236883 41.16721923 -8.81003846 52.45173475 -12 63.875 C-12.2781958 64.87112305 -12.5563916 65.86724609 -12.84301758 66.89355469 C-15.13318641 75.23626149 -17.04200431 83.47589135 -18.125 92.0625 C-18.21136719 92.73732422 -18.29773438 93.41214844 -18.38671875 94.10742188 C-18.59485368 95.73781219 -18.79798546 97.36884003 -19 99 C-18.05898438 98.51789063 -17.11796875 98.03578125 -16.1484375 97.5390625 C-14.89073478 96.9008253 -13.63291608 96.2628166 -12.375 95.625 C-11.75753906 95.30789062 -11.14007813 94.99078125 -10.50390625 94.6640625 C-4.73610915 91.74980712 0.29630545 89.71454404 6.875 89.875 C7.84179688 89.89304687 8.80859375 89.91109375 9.8046875 89.9296875 C10.52914062 89.95289063 11.25359375 89.97609375 12 90 C12.18367005 92.93872072 12.14100539 94.34104994 11 97 C8.28981963 99.67513493 5.1837388 101.66716652 1.984375 103.71630859 C-0.35722721 105.23109014 -2.66131695 106.79696293 -4.96875 108.36328125 C-6.7488869 109.55634999 -8.53014457 110.74774813 -10.3125 111.9375 C-11.17206299 112.51773926 -12.03162598 113.09797852 -12.91723633 113.69580078 C-21.35599402 119.22636957 -21.35599402 119.22636957 -26 119 C-28.53047631 116.9980812 -29.83818213 115.78026922 -30.50170898 112.58081055 C-30.49985596 111.69176025 -30.49800293 110.80270996 -30.49609375 109.88671875 C-30.49907471 108.89389893 -30.50205566 107.9010791 -30.50512695 106.87817383 C-30.48281006 105.82525146 -30.46049316 104.7723291 -30.4375 103.6875 C-30.42356201 102.60170654 -30.40962402 101.51591309 -30.39526367 100.3972168 C-30.201151 91.90241625 -29.10880802 84.2419947 -27 76 C-26.61671248 74.31739828 -26.23813659 72.63371907 -25.86328125 70.94921875 C-23.77187648 61.66667012 -21.39608618 52.64972368 -18.2421875 43.66796875 C-17.1253006 40.36999139 -16.15596306 37.07385817 -15.22631836 33.72094727 C-13.36885555 27.05353813 -11.20533144 20.66105619 -8.4375 14.3125 C-8.15664551 13.66547119 -7.87579102 13.01844238 -7.58642578 12.35180664 C-5.63444446 8.02308106 -3.40213656 3.40213656 0 0 Z " fill="#F9CD00" transform="translate(363,121)"/>
<path d="M0 0 C2.875 0.625 2.875 0.625 4.6875 2.875 C11.33477545 18.26869051 7.04419725 41.65751953 1.4375 56.9375 C-0.92980443 62.52519155 -2.96560709 67.18540473 -8.125 70.625 C-10.625 71 -10.625 71 -13.125 70.625 C-17.79773994 65.95226006 -17.27180231 60.251551 -17.31518555 54.04345703 C-17.29915438 34.0103248 -17.29915438 34.0103248 -15.125 24.625 C-14.90714844 23.65691406 -14.68929687 22.68882813 -14.46484375 21.69140625 C-12.44150023 13.54274957 -9.40101293 1.88020259 0 0 Z M-6.125 14.625 C-11.0178604 29.13731896 -12.45230677 42.44160238 -12.125 57.625 C-9.68612384 53.96668576 -8.97129822 50.35384332 -8.0625 46.125 C-7.8862207 45.31345459 -7.70994141 44.50190918 -7.52832031 43.66577148 C-5.47972217 33.94654806 -4.95230426 24.54541069 -5.125 14.625 C-5.455 14.625 -5.785 14.625 -6.125 14.625 Z " fill="#0E0E0E" transform="translate(61.125,51.375)"/>
<path d="M0 0 C2.875 0.625 2.875 0.625 4.6875 2.875 C11.33477545 18.26869051 7.04419725 41.65751953 1.4375 56.9375 C-0.92980443 62.52519155 -2.96560709 67.18540473 -8.125 70.625 C-10.625 71 -10.625 71 -13.125 70.625 C-17.79773994 65.95226006 -17.27180231 60.251551 -17.31518555 54.04345703 C-17.29915438 34.0103248 -17.29915438 34.0103248 -15.125 24.625 C-14.90714844 23.65691406 -14.68929687 22.68882813 -14.46484375 21.69140625 C-12.44150023 13.54274957 -9.40101293 1.88020259 0 0 Z M-6.125 14.625 C-11.0178604 29.13731896 -12.45230677 42.44160238 -12.125 57.625 C-9.68612384 53.96668576 -8.97129822 50.35384332 -8.0625 46.125 C-7.8862207 45.31345459 -7.70994141 44.50190918 -7.52832031 43.66577148 C-5.47972217 33.94654806 -4.95230426 24.54541069 -5.125 14.625 C-5.455 14.625 -5.785 14.625 -6.125 14.625 Z " fill="#0E0E0E" transform="translate(153.125,43.375)"/>
<path d="M0 0 C1.14275391 0.00902344 2.28550781 0.01804688 3.46289062 0.02734375 C6.2463231 0.05063607 9.02929229 0.08334001 11.8125 0.125 C11.8125 11.66076014 -6.91978755 25.94090034 -14.875 33.9375 C-19.81897818 38.86791107 -24.82727785 43.64591026 -30.1875 48.125 C-30.83460937 48.69992188 -31.48171875 49.27484375 -32.1484375 49.8671875 C-32.78007813 50.42664063 -33.41171875 50.98609375 -34.0625 51.5625 C-34.61679688 52.05621094 -35.17109375 52.54992187 -35.7421875 53.05859375 C-37.1875 54.125 -37.1875 54.125 -39.1875 54.125 C-37.7154401 46.40718404 -35.996209 38.75339289 -34.21069336 31.10253906 C-33.75094074 29.12903816 -33.29627669 27.15440842 -32.84179688 25.1796875 C-31.52786913 19.5363536 -30.19243123 13.89895413 -28.65234375 8.3125 C-28.44085693 7.54292969 -28.22937012 6.77335938 -28.01147461 5.98046875 C-27.1875 4.125 -27.1875 4.125 -24.1875 2.125 C-16.23627948 -0.11005969 -8.19325591 -0.12479476 0 0 Z M-17.91015625 7.1328125 C-18.71332275 7.31730957 -19.51648926 7.50180664 -20.34399414 7.69189453 C-21.25652954 7.90628174 -21.25652954 7.90628174 -22.1875 8.125 C-23.05335625 11.0800405 -23.90316785 14.03945682 -24.75 17 C-24.99685547 17.84175781 -25.24371094 18.68351562 -25.49804688 19.55078125 C-25.72685547 20.35644531 -25.95566406 21.16210938 -26.19140625 21.9921875 C-26.51347046 23.10762939 -26.51347046 23.10762939 -26.84204102 24.24560547 C-27.39730332 26.20667993 -27.39730332 26.20667993 -26.1875 28.125 C-19.31637026 21.51207556 -12.92481032 14.76088886 -7.1875 7.125 C-7.1875 6.795 -7.1875 6.465 -7.1875 6.125 C-10.95387131 5.93185275 -14.25825775 6.28570545 -17.91015625 7.1328125 Z " fill="#0E0D08" transform="translate(134.1875,154.875)"/>
<path d="M0 0 C-0.5145101 4.57154876 -2.49477593 7.53662063 -5.1875 11.125 C-5.62384766 11.72046631 -6.06019531 12.31593262 -6.50976562 12.92944336 C-7.47456971 14.24367111 -8.44336296 15.55497699 -9.41552734 16.86376953 C-11.09606835 19.12952205 -12.7618917 21.4055887 -14.42578125 23.68359375 C-21.15995513 32.88656404 -27.99089643 42.00444542 -35 51 C-36.10317639 47.69047082 -35.88722344 46.3598102 -35.2578125 42.9921875 C-35.07863281 42.00476563 -34.89945312 41.01734375 -34.71484375 40 C-34.52019531 38.96875 -34.32554687 37.9375 -34.125 36.875 C-32.83592338 29.92287646 -31.68785173 23.03950392 -31 16 C-32.32 16 -33.64 16 -35 16 C-38.01505582 22.06072135 -39.8684145 27.97520167 -41.2890625 34.59375 C-41.52367187 35.3878125 -41.75828125 36.181875 -42 37 C-42.99 37.495 -42.99 37.495 -44 38 C-44.24234375 36.98679688 -44.4846875 35.97359375 -44.734375 34.9296875 C-45.07230396 33.57797167 -45.41088024 32.22641757 -45.75 30.875 C-45.90726562 30.20984375 -46.06453125 29.5446875 -46.2265625 28.859375 C-47.41705922 24.1889648 -49.12726353 20.87457314 -52 17 C-50.10363345 11.85430363 -46.11469527 10.67371762 -41.40234375 8.44921875 C-28.67151467 3.02655792 -13.91533219 -0.74546422 0 0 Z M-28 10 C-27.34 11.32 -26.68 12.64 -26 14 C-23.37812506 12.95125002 -22.20628639 12.35068687 -20.75 9.875 C-20.5025 9.25625 -20.255 8.6375 -20 8 C-22.88395737 8 -25.29477815 9.05905327 -28 10 Z " fill="#0B0903" transform="translate(329,137)"/>
<path d="M0 0 C0.99 0.33 1.98 0.66 3 1 C3.33 3.97 3.66 6.94 4 10 C9.28 10 14.56 10 20 10 C20 11.32 20 12.64 20 14 C17.375 15.921875 17.375 15.921875 14 17.75 C12.88625 18.36359375 11.7725 18.9771875 10.625 19.609375 C9.75875 20.06828125 8.8925 20.5271875 8 21 C8.144375 21.58007812 8.28875 22.16015625 8.4375 22.7578125 C9.50889428 27.26659675 10.23945936 31.33054247 10 36 C7.00779732 34.63629701 4.70973471 33.05091917 2.25 30.875 C1.63640625 30.33617187 1.0228125 29.79734375 0.390625 29.2421875 C-0.06828125 28.83226562 -0.5271875 28.42234375 -1 28 C-4.83171162 29.76980402 -7.8963861 32.15601771 -11.1953125 34.7578125 C-13 36 -13 36 -15 36 C-14.59153645 32.01748041 -13.57373821 28.9836968 -11.8125 25.4375 C-10.20105941 21.99608281 -10.20105941 21.99608281 -10.4375 18.25 C-12.03008175 15.81463591 -12.03008175 15.81463591 -14.625 13.375 C-15.40875 12.59125 -16.1925 11.8075 -17 11 C-17 10.01 -17 9.02 -17 8 C-16.10796875 8.00902344 -15.2159375 8.01804687 -14.296875 8.02734375 C-7.77125413 8.17984864 -7.77125413 8.17984864 -2.24609375 5.375 C-1.01702379 3.25338199 -1.01702379 3.25338199 0 0 Z " fill="#F5CA00" transform="translate(458,119)"/>
<path d="M0 0 C1.76949095 -0.10815225 3.54087487 -0.18566083 5.3125 -0.25 C6.29863281 -0.29640625 7.28476563 -0.3428125 8.30078125 -0.390625 C11 0 11 0 12.82836914 1.80102539 C14.50817264 4.95376348 14.48926256 7.94994543 14.4375 11.4375 C14.42722778 12.49396729 14.42722778 12.49396729 14.41674805 13.57177734 C14.1727489 21.68132198 12.45444995 29.94825389 7.8125 36.75 C4.01424181 39.78860655 0.76056379 39.9792568 -4 40 C-3.36754482 26.58758853 -1.67998654 13.31503914 0 0 Z " fill="#050505" transform="translate(234,38)"/>
<path d="M0 0 C4.08641257 0.73266488 7.59474154 2.68657975 11.25 4.5625 C11.8996875 4.89185547 12.549375 5.22121094 13.21875 5.56054688 C14.81434294 6.37007565 16.40742483 7.18455042 18 8 C16.13298473 17.91131563 7.51900044 26.82281475 0 33 C-2.8046875 34.27734375 -2.8046875 34.27734375 -5 35 C-6.57451457 33.42548543 -6.28498609 31.95187882 -6.375 29.75 C-6.33807883 20.45817267 -4.19080289 8.38160578 0 0 Z " fill="#060500" transform="translate(180,181)"/>
<path d="M0 0 C4.08641257 0.73266488 7.59474154 2.68657975 11.25 4.5625 C11.8996875 4.89185547 12.549375 5.22121094 13.21875 5.56054688 C14.81434294 6.37007565 16.40742483 7.18455042 18 8 C16.13298473 17.91131563 7.51900044 26.82281475 0 33 C-2.8046875 34.27734375 -2.8046875 34.27734375 -5 35 C-6.57451457 33.42548543 -6.28498609 31.95187882 -6.375 29.75 C-6.33807883 20.45817267 -4.19080289 8.38160578 0 0 Z " fill="#060500" transform="translate(235,179)"/>
<path d="M0 0 C2.25 -0.3125 2.25 -0.3125 5 0 C9.66367567 4.79322222 10.13846363 8.5528364 10.125 15.0625 C10.12886719 16.93615234 10.12886719 16.93615234 10.1328125 18.84765625 C10 22 10 22 9 24 C3.16403878 22.46422073 -2.1612544 19.58121849 -7 16 C-8 13 -8 13 -7.0625 10.8125 C-6.5365625 9.9153125 -6.5365625 9.9153125 -6 9 C-5.01 9 -4.02 9 -3 9 C-2.01 6.03 -1.02 3.06 0 0 Z " fill="#080700" transform="translate(195,151)"/>
<path d="M0 0 C2.25 -0.3125 2.25 -0.3125 5 0 C9.66367567 4.79322222 10.13846363 8.5528364 10.125 15.0625 C10.12886719 16.93615234 10.12886719 16.93615234 10.1328125 18.84765625 C10 22 10 22 9 24 C3.16403878 22.46422073 -2.1612544 19.58121849 -7 16 C-8 13 -8 13 -7.0625 10.8125 C-6.5365625 9.9153125 -6.5365625 9.9153125 -6 9 C-5.01 9 -4.02 9 -3 9 C-2.01 6.03 -1.02 3.06 0 0 Z " fill="#080700" transform="translate(250,149)"/>
<path d="M0 0 C0.66 0.33 1.32 0.66 2 1 C-2.29 5.29 -6.58 9.58 -11 14 C-11 9.40845608 -8.09282279 7.18698368 -5 4 C-3.3719908 2.61973133 -1.71956118 1.26438322 0 0 Z " fill="#606060" transform="translate(23,46)"/>
<path d="M0 0 C0.66 0.33 1.32 0.66 2 1 C-2.29 5.29 -6.58 9.58 -11 14 C-11 9.40845608 -8.09282279 7.18698368 -5 4 C-3.3719908 2.61973133 -1.71956118 1.26438322 0 0 Z " fill="#606060" transform="translate(115,38)"/>
</svg>
